<svg xmlns="http://www.w3.org/2000/svg" width="114" height="138" viewBox="0 0 114 138" fill="none">
<path d="M82.4779 121.381C79.68 120.348 76.6242 118.428 74.4576 116.82C73.7899 116.323 74.3661 116.167 73.9108 115.803C72.9855 115.068 72.0415 114.743 71.163 113.975C70.8905 113.729 71.6229 113.39 71.3327 113.147C69.7244 111.808 67.9362 110.869 66.2768 109.606C57.9963 103.296 50.0998 97.0238 42.2906 90.143C39.7261 87.8834 36.9754 84.7085 34.1622 82.546C33.8325 82.2935 33.6234 82.8976 33.5324 82.8813C32.1235 82.6164 33.2221 82.003 32.7336 81.3485C30.7745 78.7346 28.2508 76.2989 25.8789 74.3237C24.8698 73.4845 24.9952 75.2371 24.5125 73.852C24.4784 73.7568 25.1513 73.5381 24.9427 73.2417C24.469 72.572 23.2929 71.5703 22.8792 71.0879C22.0929 70.1657 21.9497 70.0308 21.1481 69.2118C20.0503 68.0809 18.9864 66.5417 17.7198 65.4208C17.4481 65.1827 17.3131 65.9712 16.8371 65.6301C16.7451 65.5641 16.6332 65.4682 16.5107 65.3528C15.9735 64.8462 15.2718 63.9972 15.0836 63.6054C14.8486 63.1192 15.3725 62.9463 15.3973 62.8012C15.6019 61.5763 13.4316 61.1238 13.2528 60.9566C10.0672 58.0318 8.53682 54.5804 6.52068 51.0634C4.98785 48.3893 3.37401 45.4636 2.46595 42.5696C1.40083 39.1508 1.15736 36.0575 0.871102 32.6138C0.843764 32.2496 0.115271 32.727 0.0814357 32.2692C-0.292081 27.4361 0.569375 22.6345 1.75793 18.56C1.87321 18.1516 2.44578 18.7885 2.59964 18.3866C2.63042 18.3049 2.66206 18.2223 2.69429 18.139C3.64635 14.2773 8.0477 12.1797 8.27981 9.03339C9.24395 8.55956 10.2891 8.14771 11.3028 7.8601C12.4506 7.52475 13.6091 7.35892 14.5997 7.42571C15.8298 7.52703 14.8772 8.46705 16.19 7.89043C16.4897 7.76694 15.9676 7.2167 16.4367 7.07957C18.4317 6.50474 20.6635 6.61103 22.6561 6.38215C23.064 6.33423 22.986 5.76409 23.1082 5.66863C24.1646 4.8934 25.6564 6.44483 25.9644 6.59523C28.4546 7.70553 30.3077 7.86006 32.6039 8.57599C33.1334 8.74653 32.7313 7.82229 33.2542 7.96374C35.3374 8.54128 37.399 9.37586 39.2705 10.4332C39.9413 10.8013 40.5737 11.2259 41.1419 11.6815C41.6815 12.1247 40.7943 12.3186 41.0253 12.5548C41.9879 13.5875 42.9907 12.834 43.8308 13.953C44 14.187 43.5012 14.4794 43.4965 14.5587C43.3897 15.7762 44.8015 15.319 44.9698 15.4602C46.9966 17.1462 46.7032 19.2871 48.011 21.1473C48.1674 21.3736 48.4744 20.4848 48.8792 21.151C51.5783 25.6561 53.1091 30.8364 53.9155 35.6898C54.0396 36.4443 53.3842 36.0655 53.3348 36.1296C52.567 37.1479 54.0101 37.2716 54.1243 37.4966C54.9918 39.2887 54.3191 41.3221 56.2036 42.2227C57.5429 49.998 59.6843 57.4539 60.6223 64.968C60.659 65.2829 60.6943 65.5682 60.74 65.8415C60.7554 65.9204 60.0805 66.0483 60.1191 66.2141C60.2347 66.7171 60.445 66.9813 60.5648 66.9914C60.6927 67.0054 60.6544 66.7982 60.5269 66.6217C60.2808 66.2389 59.8089 65.92 59.516 65.3018C59.4351 65.1526 59.8082 65.1723 60.2648 65.1211C60.718 65.0778 61.2278 65.0069 61.2999 64.9924C61.8414 64.8643 62.5348 65.6794 62.6664 65.605C63.7444 64.8887 60.6946 63.6327 61.2183 62.3968C61.2402 62.3581 61.7311 62.76 61.8319 62.6738C62.1492 62.401 62.0598 61.968 62.3833 61.7031C62.9126 61.2659 63.8704 61.2614 64.2341 60.7304C64.3861 60.5057 64.4348 60.1943 64.3058 59.7292C64.2469 59.5291 62.3949 59.16 62.9176 57.9185C63.121 57.4414 63.8814 55.1533 64.211 54.5783C64.5421 53.9966 64.9624 54.622 65.0025 54.5862C66.3452 53.1599 66.4365 53.9005 67.8466 53.4448C69.2522 52.9901 66.5241 52.2961 66.3492 51.8498C66.1704 51.4169 67.2375 50.3689 67.5592 50.1458C67.8824 49.918 68.1093 50.4248 68.3269 50.198C69.7548 48.7008 67.2899 48.9576 67.0809 48.2163C66.5948 46.4385 68.926 46.0966 69.5853 44.8682C69.7613 44.5422 69.2144 44.6624 69.2833 44.3412C69.5547 43.0922 70.444 42.5437 70.3818 40.9825C70.3682 40.7372 69.6169 39.1561 70.7403 38.7649C70.9018 38.7099 71.2817 39.176 71.5793 38.7069C72.031 37.9885 72.6512 36.6515 72.8042 35.7561C72.9171 35.0942 71.8519 35.4974 72.3922 34.8184C72.6323 34.5191 72.8601 35.3275 73.2716 34.7522C73.6731 34.2013 74.2915 32.5263 74.5069 31.9249C74.7344 31.2894 73.997 31.3996 73.9761 31.3328C73.8633 30.9312 74.0345 29.6364 74.0749 29.5373C76.0955 24.209 79.1072 19.7712 81.2439 14.6222C81.4139 14.219 80.6732 14.1745 80.6928 14.1098C81.1143 12.6378 82.2029 14.5068 83.2153 13.8641C81.915 13.3637 82.4188 12.9226 82.7851 11.9259C82.964 11.4417 82.3612 11.4269 82.3348 11.3603C81.9955 10.2824 83.1772 10.3421 83.4336 10.328C84.3693 10.2902 83.8448 9.34262 84.4786 9.32156C85.1033 9.30957 85.363 10.3704 85.8773 9.5222C85.6116 9.01293 84.1005 8.97873 84.3474 8.19388C84.6964 7.08909 85.5194 5.79282 86.601 4.60099C88.5677 2.32901 91.6508 1.36714 93.1893 1.06097C95.3674 0.598754 96.2947 0.597978 97.4498 0.712492C97.6367 0.735646 97.8288 0.767543 98.0312 0.811226C100.661 1.5615 99.8708 0.46058 101.778 0.69371C103.675 1.13004 101.687 2.81 101.664 3.36208C101.587 3.90408 102.05 3.57282 102.113 3.951C102.16 4.32107 101.538 4.31376 101.938 4.71729C102.321 5.07333 104.074 5.49826 104.63 5.3574C105.786 4.98726 106.177 3.53583 107.017 5.29751C107.059 5.39729 106.357 5.49064 106.54 5.84992C106.653 6.07106 106.761 6.2918 106.868 6.51528C106.911 6.57592 106.995 6.76844 107.02 6.83836C107.458 9.5335 108.071 12.2357 108.231 14.9204C108.254 15.3206 107.504 15.114 107.509 15.3477C107.543 17.7721 108.517 16.7045 110.035 17.7822C108.282 17.8005 107.381 18.6884 107.659 20.4665C107.821 21.5316 108.536 21.2344 109.167 21.8601C109.357 22.0435 108.954 22.8778 109.324 22.9678C110.534 23.2652 111.726 22.3677 111.462 24.3126C111.448 24.3976 110.786 24.2184 110.784 24.506C110.766 26.3791 111.995 26.442 112.356 28.4343C112.638 29.9912 112.151 32.8421 112.159 34.6261C110.223 34.7431 110.784 36.3546 112.162 36.9588C112.182 38.1177 112.329 39.3587 112.201 40.4809C112.157 40.8652 111.583 40.643 111.525 40.6942C110.611 41.4763 111.934 41.9166 111.996 42.1657C112.612 44.8299 111.696 47.0809 112.718 49.6117C112.754 49.7019 114.106 49.8238 113.136 50.5363C113.069 50.5829 112.439 49.7481 112.415 50.9523C112.391 52.1611 111.699 54.4408 112.333 56.1257C112.486 56.5256 113.585 57.5468 112.731 58.38C112.615 58.4907 112.228 58.3702 112.013 58.5299C111.328 59.0501 112.69 59.3194 111.532 59.9194C110.373 60.5155 109.503 61.7666 110.286 63.4494C110.309 63.5032 111.385 63.9128 111.362 64.448C111.325 65.2985 111.084 66.4865 111.077 67.3801C111.074 67.8069 111.749 67.5447 111.76 67.619C112.088 70.4648 111.444 72.4997 111.1 75.5346C111.036 76.0916 111.902 77.7345 111.144 78.7889C110.313 79.9499 107.066 78.6313 107.755 81.3722C108.029 82.4751 112.15 84.0386 109.908 85.9285C109.947 86.3285 109.968 86.726 109.976 87.1216L109.977 87.0962C109.877 90.5025 108.704 93.5826 108.928 97.0876C108.938 97.2629 110.02 97.9623 109.948 98.3663C109.839 98.9642 109.252 99.2158 109.155 99.6387C108.735 101.405 108.943 103.114 108.592 104.827C108.459 105.479 107.941 105.157 107.781 105.931C107.621 106.705 108.266 107.347 107.731 108.342C107.324 109.093 105.692 109.623 105.33 110.645C106.794 110.949 106.636 111.666 106.789 113.025C106.819 113.286 107.379 113.114 107.42 113.243C107.597 113.767 107.09 114.135 107.294 114.638C107.342 114.76 107.844 114.859 107.912 114.965C108.508 115.872 107.142 116.918 106.904 117.1C106.001 117.788 106.581 118.297 106.165 118.88C105.75 119.456 105.564 118.441 105.244 119.145C104.581 120.615 104.282 122.597 103.957 124.153C103.831 124.775 104.582 124.479 104.579 124.571C104.5 125.893 103.535 127.057 104.731 128.026C101.11 128.258 104.916 128.861 103.869 130.576C103.786 130.708 102.12 130.58 101.988 129.977C101.857 129.366 102.527 128.635 102.305 127.782C102.254 127.579 100.927 126.245 100.863 126.08C100.358 124.815 102.823 125.135 102.969 125.101C104.544 124.704 103.144 123.116 103.097 122.751C102.872 121.116 103.468 119.866 103.341 118.51C103.261 117.623 101.681 117.234 101.854 116.587C102.429 114.426 104.803 114.069 103.245 111.65C102.913 111.131 101.087 111.256 102.745 109.921C102.85 109.837 104.316 108.884 103.638 108.064C103.552 107.961 103.042 107.875 103.019 107.756C102.871 106.957 103.364 106.522 103.306 105.671C103.249 104.818 103.119 103.788 103.44 102.882C103.633 102.336 104.699 101.761 104.973 101.526C105.763 100.863 104.781 99.8788 105.665 99.5249C106.554 99.1637 107.663 100.287 108.374 99.0966C107.049 98.8602 105.697 98.5592 104.368 98.2957C104.801 95.572 105.57 92.933 105.803 90.1723C105.831 89.8293 105.075 90.1029 105.086 89.7339C105.118 88.6672 105.432 87.7206 105.603 86.6978L105.587 86.9369C105.641 86.4651 105.667 85.9824 105.624 85.4743C105.513 84.2084 104.802 82.7936 104.656 81.4697C106.223 80.7311 105.77 78.7343 105.953 77.3316C106.017 76.8401 106.427 76.8797 106.571 76.5286C107.107 75.2008 105.728 75.7912 105.525 75.4184C104.655 73.8312 107.737 73.7723 107.705 71.9136C107.705 71.8128 106.091 70.5887 105.992 70.4152C105.347 69.3474 106.566 70.2519 106.701 69.5953C106.946 68.3999 107.352 67.5779 106.892 66.158C106.755 65.7423 105.745 64.7638 106.544 63.9657C106.649 63.8616 107.19 63.9251 107.223 63.8407C107.766 62.3128 106.061 62.2742 105.489 61.3955C104.917 60.5164 106.095 59.1853 106.434 58.9144C107.311 58.1951 106.809 59.4614 106.895 59.4977C107.918 59.9505 107.744 58.9832 107.829 58.2206C109.5 58.108 109.397 57.0531 107.91 57.4397C107.748 57.4832 107.905 58.0684 107.829 58.2206C106.189 57.5531 105.975 56.4368 107.496 55.1341C108.209 54.5321 109.054 55.0809 108.726 53.2813C108.576 52.4529 107.43 52.7889 107.106 52.0679C106.364 50.4356 107.388 48.2734 107.164 46.5602C107.083 45.9456 106.473 46.5659 106.396 46.1478C106.189 45.0541 106.623 44.0222 106.333 42.9271C106.306 42.8273 105.658 43.1026 105.634 42.7564C105.44 40.1207 105.732 37.8067 105.542 35.0716C105.451 33.7413 104.888 31.4326 104.821 30.0591C104.713 27.6983 105.309 24.6969 104.781 22.7296C104.44 21.4492 103.829 21.8343 103.299 21.3558C102.277 20.442 103.481 18.3229 103.666 18.0137C103.673 18.0017 104.029 19.0888 104.254 18.4325C104.884 17.9576 103.671 18.025 103.666 18.0137C103.794 17.8199 103.503 15.592 103.281 15.1973C103.164 14.98 102.582 15.2433 102.531 15.126C101.648 13.055 100.919 10.9952 100.328 8.91616L100.994 10.3346C100.739 9.91073 100.492 9.51745 100.248 9.14645C100.236 9.11476 100.782 8.67535 100.742 8.60289C100.174 7.56304 99.0579 7.90106 98.3599 8.15925C97.7145 8.39267 97.5257 8.28551 97.1788 7.38395C97.124 7.27666 97.0689 7.15877 97.0131 7.02978C96.3331 7.15582 95.3141 6.76589 94.6428 6.63658C93.9616 6.50842 94.3921 7.82298 94.3673 7.85744C93.6991 8.89258 93.1818 8.87426 92.3866 9.41345C92.1157 9.64465 91.8269 9.92586 91.5379 10.2751C90.8626 11.0571 89.8363 13.0544 89.3592 14.2269C88.9833 15.1382 88.4109 15.5332 88.1626 16.4536C88.1291 16.5778 88.7255 16.743 88.7287 16.7878C88.8988 18.0441 87.8065 16.931 87.471 17.0067C86.2639 17.2675 85.5752 17.4962 85.3843 18.9526C85.3463 19.2732 86.878 21.0327 86.761 21.5916C86.5976 22.3336 86.015 21.7665 85.8598 22.5657C85.8465 22.6331 86.2834 22.8095 86.0686 23.243C85.0722 25.271 83.8545 27.4667 83.0025 29.7007C82.8843 30.0056 83.7348 29.8964 83.5754 30.3424C82.8335 32.4196 81.9213 34.6819 80.8192 36.5882C80.5444 37.0603 80.1759 36.5573 79.9892 36.6105C78.861 36.9286 79.778 38.3694 79.7426 38.5378C78.9536 42.5025 76.7465 44.9425 75.9222 48.984C75.883 49.1949 76.6828 51.3115 75.2449 51.607C75.1491 51.627 73.6878 51.9004 74.2925 52.8274C74.3304 52.8853 75.1123 52.6589 74.7733 53.4162C74.4264 54.1962 74.4211 55.5432 73.3541 56.3909C73.0151 56.6664 71.5319 57.0226 72.1456 58.3697C72.1916 58.4541 73.8251 60.7964 72.1325 60.8114C71.8531 60.8163 70.2923 60.1643 70.6926 61.6559C70.7712 61.9425 71.2725 61.6438 71.2837 62.3323C71.2882 62.5897 71.2406 62.8504 71.1703 63.1185C70.9244 64.031 70.4393 65.0114 70.5445 66.2498C70.579 66.5187 71.1897 68.0309 69.9532 68.5623C69.7618 68.6402 69.3926 68.1234 69.0959 68.5684C68.2911 69.6466 68.0073 70.7531 65.7262 72.8581C65.0977 73.369 64.1896 74.0747 62.5613 74.5332C60.965 75.0395 58.4607 74.7709 56.9953 73.9074C54.0871 72.1383 53.8495 70.7598 53.3744 69.8195C52.926 68.5228 54.0244 68.7596 53.8779 67.657C53.8621 67.4668 53.8382 67.2434 53.808 66.9976C53.7597 66.2229 53.5536 65.1469 53.0755 64.6637C52.48 64.0455 51.2876 65.2194 50.8852 64.1402C49.1709 59.5001 49.0673 54.7866 48.1867 50.2767C48.0569 49.6091 47.673 50.2721 47.4444 49.297C46.6126 45.6863 44.6673 39.8151 44.8243 36.6182C44.9538 34.0249 46.5068 36.7781 46.2917 34.8683C46.1805 33.9386 44.2686 33.5524 44.15 33.3721C42.9644 31.5886 43.1527 30.0067 42.2144 28.4507C42.0213 28.1367 41.5438 28.7423 41.3877 28.4773C40.848 27.5752 40.6372 26.4787 40.1266 25.689C39.8957 25.3371 39.4803 25.6629 39.3242 25.3208C38.945 24.5153 38.7133 23.7754 38.6025 22.8265C38.5896 22.737 39.423 22.7523 39.0499 22.2314C38.4565 21.4072 37.9278 20.1561 36.8172 19.9373C36.4871 19.8788 35.8077 20.846 35.8041 19.8652C35.8061 19.6691 36.641 18.4766 35.4544 19.2456C35.4032 19.2818 35.2407 19.3802 35.044 19.4934C34.2771 19.6884 33.0514 19.8974 32.7834 18.9449C32.69 18.6012 32.5792 17.2968 32.0412 17.2969C31.9687 17.3018 31.9979 17.9948 31.5954 17.9151C30.1829 17.6275 28.7831 17.1342 27.3532 17.0063C26.9744 16.9752 27.3662 17.7455 26.8154 17.6829C25.3063 17.5119 23.5369 17.093 22.1641 16.8295C21.6587 16.7308 22.0295 16.1958 21.9961 16.1343C21.4043 15.139 21.0203 16.4584 20.8372 16.5371C19.6546 17.0171 18.7328 16.4939 17.7294 16.845C17.4595 16.9419 17.7792 17.5176 17.7353 17.5831C17.3085 18.2304 17.4772 17.0436 17.0949 17.0031C16.4046 16.9334 15.7098 17.0849 15.091 17.3409C14.6758 17.5111 14.3041 17.6999 13.9859 17.884C13.6683 18.0724 14.3496 18.5468 14.0807 18.7014C13.3121 19.1525 12.8936 19.533 12.793 19.586C12.6956 19.6567 12.6807 19.3643 12.4287 19.5798C12.419 19.6149 12.4092 19.6499 12.3993 19.6848C12.2352 20.2576 11.7379 19.8053 11.5932 19.9073C10.5814 20.6097 11.6007 21.9203 11.6746 22.197C12.0151 23.4271 11.46 23.7808 11.4213 24.7427C11.1801 29.4085 11.1134 34.2918 12.1014 38.2195C13.3382 43.2587 15.0898 47.4056 18.4702 51.7539C18.6847 52.0262 19.0696 51.3003 19.2615 51.5273C20.9768 53.5879 22.6625 55.6981 24.5641 57.7043C25.4477 58.636 26.3494 59.5458 27.2902 60.4158C27.5423 60.6506 27.6991 59.802 28.1224 60.1636C28.9972 60.9048 29.9808 61.9513 30.6307 62.9154C30.9519 63.388 29.9898 63.2847 30.3244 63.7539C31.1053 64.8493 32.0739 65.8683 33.1259 66.7268C33.5769 67.0928 33.4499 65.9684 33.996 66.4832C37.7122 69.9596 41.4697 73.2277 44.7469 77.3113C44.9725 77.5919 44.2497 78.906 45.0047 79.1847C45.313 78.9132 45.6226 78.5482 45.9247 78.2345C51.6953 82.8836 57.135 87.8744 63.078 92.3318C63.3308 92.5209 63.3506 91.5728 63.8409 91.9342C66.6618 94.0094 69.5454 95.7716 72.084 98.3943C72.3417 98.6563 71.435 99.6965 72.4291 100.105C72.6072 100.179 74.0104 100.878 74.527 100.855C74.5977 100.847 74.7015 100.156 75.1384 100.415C77.6584 101.917 80.1885 103.634 82.5037 105.388C82.8753 105.671 82.113 106.022 82.375 106.228C84.2688 107.704 86.7292 108.41 88.3872 109.802C89.4559 110.703 88.5838 111.608 88.8584 112.947C88.8696 113.038 89.0976 113.17 89.2852 113.346C89.4743 113.524 89.5955 113.738 89.5466 114.074C89.2403 115.744 88.2314 117.382 87.9342 119.172C87.8245 119.579 89.9459 119.598 88.5508 120.268C88.5066 120.291 88.0666 120.287 87.6421 120.293C87.2599 120.315 86.8268 120.337 86.62 120.434C86.3327 120.568 86.4992 121.35 85.9669 121.463C85.4883 121.592 85.2105 120.876 84.4858 120.937C83.7754 121.002 83.6819 121.818 82.4779 121.381ZM91.4979 6.65773C90.5669 6.58427 92.1534 8.38176 92.198 7.59217C92.1985 7.5525 91.5429 6.6629 91.4979 6.65773ZM107.344 93.1571C108.524 92.1622 107.066 91.2195 106.168 91.9159C105.27 92.6043 106.985 93.4586 107.344 93.1571ZM106.461 104.845C107.494 103.669 104.176 102.933 104.629 104.43C104.654 104.517 106.401 104.913 106.461 104.845ZM85.3667 111.795C85.357 111.826 85.9599 112.148 85.9934 112.127C86.6398 111.593 85.4492 110.96 85.3667 111.795ZM105.245 116.476C105.773 116.153 105.472 114.885 104.816 115.286C104.289 115.606 104.588 116.878 105.245 116.476ZM70.6964 45.2299C70.6583 45.2303 70.4564 45.6962 70.6494 45.7552C71.2721 45.9417 71.3381 45.2183 70.6964 45.2299ZM101.531 136.011C102.204 133.147 105.294 131.924 104.383 135.005C104.219 135.56 103.738 133.62 103.352 134.291C102.648 135.526 104.211 136.73 103.028 137.916C102.812 138.129 101.487 136.169 101.528 136.006C101.529 136.008 101.53 136.01 101.531 136.011ZM89.3232 4.73127C89.2862 4.71414 88.7551 5.17391 88.7699 5.21147C89.0553 5.98789 90.042 5.13388 89.3232 4.73127ZM59.605 64.4535C59.6555 64.3977 59.2914 62.8411 59.221 62.8059C57.796 62.3105 58.5401 65.5069 59.605 64.4535ZM112.109 34.6581C112.929 35.3736 113.081 36.2763 112.163 36.9552C112.164 36.1838 112.12 35.4338 112.109 34.6581Z" fill="#F9B236"/>
</svg>